solid OpenSCAD_Model
  facet normal 0.689152 0.223919 -0.689152
    outer loop
      vertex 3.1 0 0
      vertex 5.52705 1.76336 3
      vertex 6.1 0 3
    endloop
  endfacet
  facet normal 0.425918 0.586228 -0.689152
    outer loop
      vertex 3.1 0 0
      vertex 4.02705 2.85317 3
      vertex 5.52705 1.76336 3
    endloop
  endfacet
  facet normal 0 0.724617 -0.689152
    outer loop
      vertex 3.1 0 0
      vertex 2.17295 2.85317 3
      vertex 4.02705 2.85317 3
    endloop
  endfacet
  facet normal -0.425918 0.586228 -0.689152
    outer loop
      vertex 3.1 0 0
      vertex 0.672949 1.76336 3
      vertex 2.17295 2.85317 3
    endloop
  endfacet
  facet normal -0.689152 0.223918 -0.689152
    outer loop
      vertex 3.1 0 0
      vertex 0.1 0 3
      vertex 0.672949 1.76336 3
    endloop
  endfacet
  facet normal -0.689152 -0.223918 -0.689152
    outer loop
      vertex 3.1 0 0
      vertex 0.672949 -1.76336 3
      vertex 0.1 0 3
    endloop
  endfacet
  facet normal -0.425918 -0.586228 -0.689152
    outer loop
      vertex 3.1 0 0
      vertex 2.17295 -2.85317 3
      vertex 0.672949 -1.76336 3
    endloop
  endfacet
  facet normal 0 -0.724617 -0.689152
    outer loop
      vertex 3.1 0 0
      vertex 4.02705 -2.85317 3
      vertex 2.17295 -2.85317 3
    endloop
  endfacet
  facet normal 0.425918 -0.586228 -0.689152
    outer loop
      vertex 3.1 0 0
      vertex 5.52705 -1.76336 3
      vertex 4.02705 -2.85317 3
    endloop
  endfacet
  facet normal 0.689152 -0.223919 -0.689152
    outer loop
      vertex 3.1 0 0
      vertex 6.1 0 3
      vertex 5.52705 -1.76336 3
    endloop
  endfacet
  facet normal 0 0 1
    outer loop
      vertex 5.52705 1.76336 3
      vertex 5.52705 -1.76336 3
      vertex 6.1 0 3
    endloop
  endfacet
  facet normal 0 0 1
    outer loop
      vertex 4.02705 2.85317 3
      vertex 5.52705 -1.76336 3
      vertex 5.52705 1.76336 3
    endloop
  endfacet
  facet normal 0 0 1
    outer loop
      vertex 4.02705 2.85317 3
      vertex 4.02705 -2.85317 3
      vertex 5.52705 -1.76336 3
    endloop
  endfacet
  facet normal -0 0 1
    outer loop
      vertex 2.17295 2.85317 3
      vertex 4.02705 -2.85317 3
      vertex 4.02705 2.85317 3
    endloop
  endfacet
  facet normal 0 0 1
    outer loop
      vertex 2.17295 2.85317 3
      vertex 2.17295 -2.85317 3
      vertex 4.02705 -2.85317 3
    endloop
  endfacet
  facet normal -0 0 1
    outer loop
      vertex 0.672949 1.76336 3
      vertex 2.17295 -2.85317 3
      vertex 2.17295 2.85317 3
    endloop
  endfacet
  facet normal 0 0 1
    outer loop
      vertex 0.672949 1.76336 3
      vertex 0.672949 -1.76336 3
      vertex 2.17295 -2.85317 3
    endloop
  endfacet
  facet normal 0 -0 1
    outer loop
      vertex 0.672949 -1.76336 3
      vertex 0.672949 1.76336 3
      vertex 0.1 0 3
    endloop
  endfacet
endsolid OpenSCAD_Model
