solid OpenSCAD_Model
  facet normal 0 0 1
    outer loop
      vertex 0.154509 0.475528 0.866025
      vertex 0.154509 -0.475528 0.866025
      vertex 0.5 0 0.866025
    endloop
  endfacet
  facet normal -0 0 1
    outer loop
      vertex -0.404509 0.293893 0.866025
      vertex 0.154509 -0.475528 0.866025
      vertex 0.154509 0.475528 0.866025
    endloop
  endfacet
  facet normal 0 0 1
    outer loop
      vertex 0.154509 -0.475528 0.866025
      vertex -0.404509 0.293893 0.866025
      vertex -0.404509 -0.293893 0.866025
    endloop
  endfacet
  facet normal 0.733 0.532555 0.423198
    outer loop
      vertex 1 0 0
      vertex 0.309017 0.951057 0
      vertex 0.5 0 0.866025
    endloop
  endfacet
  facet normal 0.733 0.532555 0.423198
    outer loop
      vertex 0.309017 0.951057 0
      vertex 0.154509 0.475528 0.866025
      vertex 0.5 0 0.866025
    endloop
  endfacet
  facet normal -0.279981 0.861692 0.423198
    outer loop
      vertex 0.309017 0.951057 0
      vertex -0.809017 0.587785 0
      vertex 0.154509 0.475528 0.866025
    endloop
  endfacet
  facet normal -0.27998 0.861694 0.423197
    outer loop
      vertex -0.809017 0.587785 0
      vertex -0.404509 0.293893 0.866025
      vertex 0.154509 0.475528 0.866025
    endloop
  endfacet
  facet normal -0.906038 0 0.423197
    outer loop
      vertex -0.809017 0.587785 0
      vertex -0.809017 -0.587785 0
      vertex -0.404509 0.293893 0.866025
    endloop
  endfacet
  facet normal -0.906038 0 0.423197
    outer loop
      vertex -0.809017 -0.587785 0
      vertex -0.404509 -0.293893 0.866025
      vertex -0.404509 0.293893 0.866025
    endloop
  endfacet
  facet normal -0.279982 -0.861693 0.423197
    outer loop
      vertex -0.809017 -0.587785 0
      vertex 0.309017 -0.951057 0
      vertex -0.404509 -0.293893 0.866025
    endloop
  endfacet
  facet normal -0.279979 -0.861693 0.423199
    outer loop
      vertex 0.309017 -0.951057 0
      vertex 0.154509 -0.475528 0.866025
      vertex -0.404509 -0.293893 0.866025
    endloop
  endfacet
  facet normal 0.733 -0.532555 0.423198
    outer loop
      vertex 0.309017 -0.951057 0
      vertex 1 0 0
      vertex 0.154509 -0.475528 0.866025
    endloop
  endfacet
  facet normal 0.733 -0.532555 0.423198
    outer loop
      vertex 1 0 0
      vertex 0.5 0 0.866025
      vertex 0.154509 -0.475528 0.866025
    endloop
  endfacet
  facet normal 0.733 0.532555 -0.423198
    outer loop
      vertex 0.5 0 -0.866025
      vertex 0.154509 0.475528 -0.866025
      vertex 1 0 0
    endloop
  endfacet
  facet normal 0.733 0.532555 -0.423198
    outer loop
      vertex 0.154509 0.475528 -0.866025
      vertex 0.309017 0.951057 0
      vertex 1 0 0
    endloop
  endfacet
  facet normal -0.279979 0.861693 -0.423199
    outer loop
      vertex 0.154509 0.475528 -0.866025
      vertex -0.404509 0.293893 -0.866025
      vertex 0.309017 0.951057 0
    endloop
  endfacet
  facet normal -0.279982 0.861693 -0.423197
    outer loop
      vertex -0.404509 0.293893 -0.866025
      vertex -0.809017 0.587785 0
      vertex 0.309017 0.951057 0
    endloop
  endfacet
  facet normal -0.906038 -0 -0.423197
    outer loop
      vertex -0.404509 0.293893 -0.866025
      vertex -0.404509 -0.293893 -0.866025
      vertex -0.809017 0.587785 0
    endloop
  endfacet
  facet normal -0.906038 0 -0.423197
    outer loop
      vertex -0.404509 -0.293893 -0.866025
      vertex -0.809017 -0.587785 0
      vertex -0.809017 0.587785 0
    endloop
  endfacet
  facet normal -0.27998 -0.861694 -0.423197
    outer loop
      vertex -0.404509 -0.293893 -0.866025
      vertex 0.154509 -0.475528 -0.866025
      vertex -0.809017 -0.587785 0
    endloop
  endfacet
  facet normal -0.279981 -0.861692 -0.423198
    outer loop
      vertex 0.154509 -0.475528 -0.866025
      vertex 0.309017 -0.951057 0
      vertex -0.809017 -0.587785 0
    endloop
  endfacet
  facet normal 0.733 -0.532555 -0.423198
    outer loop
      vertex 0.154509 -0.475528 -0.866025
      vertex 0.5 0 -0.866025
      vertex 0.309017 -0.951057 0
    endloop
  endfacet
  facet normal 0.733 -0.532555 -0.423198
    outer loop
      vertex 0.5 0 -0.866025
      vertex 1 0 0
      vertex 0.309017 -0.951057 0
    endloop
  endfacet
  facet normal 0 0 -1
    outer loop
      vertex 0.154509 -0.475528 -0.866025
      vertex 0.154509 0.475528 -0.866025
      vertex 0.5 0 -0.866025
    endloop
  endfacet
  facet normal 0 0 -1
    outer loop
      vertex -0.404509 -0.293893 -0.866025
      vertex 0.154509 0.475528 -0.866025
      vertex 0.154509 -0.475528 -0.866025
    endloop
  endfacet
  facet normal 0 0 -1
    outer loop
      vertex 0.154509 0.475528 -0.866025
      vertex -0.404509 -0.293893 -0.866025
      vertex -0.404509 0.293893 -0.866025
    endloop
  endfacet
endsolid OpenSCAD_Model
